<?xml version="1.0" encoding="utf-8"?>
<!-- Generator: Adobe Illustrator 17.1.0, SVG Export Plug-In . SVG Version: 6.00 Build 0)  -->
<!DOCTYPE svg PUBLIC "-//W3C//DTD SVG 1.1//EN" "http://www.w3.org/Graphics/SVG/1.1/DTD/svg11.dtd">
<svg version="1.1" id="Layer_1" xmlns="http://www.w3.org/2000/svg" xmlns:xlink="http://www.w3.org/1999/xlink" x="0px" y="0px"
	 viewBox="0 0 185 26" enable-background="new 0 0 185 26" xml:space="preserve">
<g>
	<g>
		<g>
			<defs>
				<polygon id="SVGID_1_" points="0.5,0 185.5,0 185,25.1 0,25.1 				"/>
			</defs>
			<clipPath id="SVGID_2_">
				<use xlink:href="#SVGID_1_"  overflow="visible"/>
			</clipPath>
			<path clip-path="url(#SVGID_2_)" fill="#251802" d="M5.3,13.9V7.2L3.2,8.1c0,0-0.5,1.2-0.4,2.8c0.1,1.3,0.8,2.9,1.4,3.5L5.3,13.9
				z M11.4,0c0.5,0,1.3,0.3,1.9,0.8c0.6,0.6,0.8,1.5,0.6,2.4c-0.2,0.8-0.4,1.1-1.2,1.7c-0.8,0.5-1.8,0.5-1.8,0.5v3.4l1.3,1.3
				l-1.3,1.3v4.3c0,0,1.9-1.3,2.9-3.3c0,0,0-0.1,0.1-0.3c0.1,0.6-0.2,2-0.8,3.4c-0.5,1.1-1.4,2.1-2.4,2.7c-1.9,1-3.4,1.1-5,0.8
				c-1.8-0.4-3.5-1.4-4.6-3.1C0.3,14.6,0,13.2,0,11.6c0.1-3,2.4-5.6,5-6.6C5.4,5,5.5,4.9,5.9,4.9C5.7,5,5.5,5.2,5.2,5.4
				C4.3,5.9,3.6,7,3.3,7.8L8,5.6v7l-3.7,2c0.5,0.6,1.9,1.6,3.2,1.7c2.1,0.2,2.7-0.7,2.7-0.7l0-4.4L8.8,10l1.3-1.3V5.4
				C9.2,5.3,8.8,5,8.2,4.8c-0.9-0.2-4-1.1-4.5-1.1C3.2,3.6,2.6,3.6,2.2,4C1.9,4.3,1.6,4.8,1.8,5.3c0.1,0.3,0.3,0.4,0.4,0.6
				c0,0-0.2,0-0.5-0.2c-0.6-0.3-1-1-1.1-1.8C0.6,2.8,1,1.9,1.9,1.2c0.8-0.5,1.7-0.8,2.7-0.7c1.5,0.2,3.6,1,5.4,1.5
				c0.7,0.2,1.3,0.2,1.7-0.1c0.2-0.2,0.6-0.6,0.3-1.1c-0.4-0.6-1.1-0.6-1.8-0.7C10.9,0,11,0,11.4,0"/>
		</g>
		<g>
			<defs>
				<polygon id="SVGID_3_" points="0.5,0 185.5,0 185,25.1 0,25.1 				"/>
			</defs>
			<clipPath id="SVGID_4_">
				<use xlink:href="#SVGID_3_"  overflow="visible"/>
			</clipPath>
			<path clip-path="url(#SVGID_4_)" fill="#251802" d="M31.5,12l-2.3,1V9.1L31.5,12z M31.5,6.8c0,0-1.6,0.9-2.6,1.5
				C27.8,9,26,9.7,26,9.7v6.4l-1,0.7l0.1,0.1l0.9-0.7l3.8,2.5l5.1-3.9l-0.1-0.1l-2.8,2.1l-2.9-2.1v-0.8l4.6-3.3L31.5,6.8z"/>
		</g>
		<g>
			<defs>
				<polygon id="SVGID_5_" points="0.5,0 185.5,0 185,25.1 0,25.1 				"/>
			</defs>
			<clipPath id="SVGID_6_">
				<use xlink:href="#SVGID_5_"  overflow="visible"/>
			</clipPath>
			<path clip-path="url(#SVGID_6_)" fill="#251802" d="M18.2,21.8c0.7,0.2,1.8,0.2,3.2-0.4c1.6-0.8,2.4-2.9,2.3-4.6l0.1-2.3V9.3
				l1-0.7l-0.1-0.1l-1,0.7L21.5,7L19,9.6V1l-3.7,2.6C15.5,3.8,16,3.8,16,4.5v11.5l-1.5,1.1l0.1,0.2l0.7-0.5l1.7,1.9l2.9-2.4
				l-0.1-0.1l-0.9,0.6l0-0.9l0-5.8L20,9l1.1,1.3c0,0,0,4.2,0,5.5c0,1.5-0.2,3.8-1,4.7C19.3,21.5,19,21.6,18.2,21.8"/>
		</g>
		<g>
			<defs>
				<polygon id="SVGID_7_" points="0.5,0 185.5,0 185,25.1 0,25.1 				"/>
			</defs>
			<clipPath id="SVGID_8_">
				<use xlink:href="#SVGID_7_"  overflow="visible"/>
			</clipPath>
			<path clip-path="url(#SVGID_8_)" fill="#251802" d="M40.9,20.8c-1.3-0.1-1.9-1-1.8-1.6c0-0.4,0.4-1.1,1.2-1.3
				c0.8-0.1,1.6,0.3,2.3,1l3-3.2l-0.1-0.1l-0.8,0.9c-0.8-0.9-1.5-1.6-2.7-1.7V4.9l7.4,13.9c0,0,0.1,0.2,0.4,0.2
				c0.3,0,0.4-0.2,0.4-0.2l0-13.9c0.6,0,1.4-0.4,1.9-0.8c1.5-1.5,0.9-3.1,0.7-3.3C52.5,1.4,52,2.2,51,2.2c-1.2,0-2-0.9-2-0.9l-3,3.3
				l0.1,0.1l0.9-1c1.1,0.9,1.2,1,2,1.1l0,7l-5.2-9.1c-0.5-0.8-1.3-1.6-2.6-1.6c-1.4,0-2.5,1.2-2.6,2.3c-0.1,1.2,0,1.5,0,1.5
				s0.2-1.3,1.1-1.3c0.8,0,1.1,0.6,1.4,1.1v3c-0.8,0.1-2.8,0.2-2.9,2.3c0,0.8,0.5,1.6,0.9,1.9c0.6,0.4,1,0.3,1,0.3s-0.7-0.3-0.5-1
				c0.2-0.6,1.4-0.8,1.5-0.5v4.2c-0.6,0-2.6,0.1-3.5,1.8c-0.5,1-0.5,2.1,0.1,2.9C38.2,20.1,39.2,21.1,40.9,20.8"/>
		</g>
		<g>
			<defs>
				<polygon id="SVGID_9_" points="0.5,0 185.5,0 185,25.1 0,25.1 				"/>
			</defs>
			<clipPath id="SVGID_10_">
				<use xlink:href="#SVGID_9_"  overflow="visible"/>
			</clipPath>
			<path clip-path="url(#SVGID_10_)" fill="#251802" d="M57.5,12.2l-2.3,1.7V8.3L57.5,12.2z M57.4,6.8c0,0-1.6,0.9-2.6,1.5
				c-1.1,0.6-2.5,1.3-2.5,1.3v6.4l-1,0.7l0.1,0.1l0.9-0.7l2.9,2.5l4.7-3.9l-0.1-0.1l-2.4,2.1l-2.3-2.1v-0.8l4.6-3.3L57.4,6.8z"/>
		</g>
		<g>
			<defs>
				<polygon id="SVGID_11_" points="0.5,0 185.5,0 185,25.1 0,25.1 				"/>
			</defs>
			<clipPath id="SVGID_12_">
				<use xlink:href="#SVGID_11_"  overflow="visible"/>
			</clipPath>
			<path clip-path="url(#SVGID_12_)" fill="#251802" d="M64.5,18.9l-2.5-2l-1.1,0.8l-0.1-0.1l1.2-0.8v-5.6c0.1-2.3-2.3-1.7-2.1-4.2
				c0.1-1.1,1.4-2.3,1.9-2.6C62.3,4.1,63,4.1,63,4.1s-1,0.6-0.8,1.5c0.4,1.4,2.6,1.9,2.6,3.7v6.3l1.8,1.4l0.5-0.4V9.8l-1-0.9
				l2.5-2.1l2.3,1.9l-0.9,0.9v6.1l2.1,1.7l0.4-0.2V9.8l-1-0.9l2.5-2.2l2.3,1.8l0.9-0.8L77.3,8L75,9.8v6l-5.1,3.2l-2.7-2.1L64.5,18.9
				z"/>
		</g>
		<g>
			<defs>
				<polygon id="SVGID_13_" points="0.5,0 185.5,0 185,25.1 0,25.1 				"/>
			</defs>
			<clipPath id="SVGID_14_">
				<use xlink:href="#SVGID_13_"  overflow="visible"/>
			</clipPath>
			<path clip-path="url(#SVGID_14_)" fill="#251802" d="M173.3,12.2l-2.4,1.7V8.3L173.3,12.2z M173.2,6.8c0,0-1.6,0.9-2.6,1.5
				c-1.1,0.6-2.5,1.3-2.5,1.3v6.4l-1,0.7l0.1,0.1l0.9-0.7l2.9,2.5l5.1-3.9l-0.1-0.1l-2.8,2.1l-2.3-2.1l0-0.8l4.6-3.3L173.2,6.8z"/>
		</g>
	</g>
	<polygon fill="#251802" points="150.5,9.5 150.6,9.7 151.5,8.9 153.1,10.4 153.1,15.8 152.3,16.4 154.5,18.8 156.7,16.6 
		155.8,15.7 155.8,9.2 156.4,8.8 157.9,10.6 157.9,15.9 157.4,16.5 159.4,18.7 161.6,16.6 160.8,15.7 160.8,9.3 161.4,8.8 163,10.5 
		163,15.8 162.5,16.3 164.8,18.8 167.9,16 167.7,15.9 167,16.5 165.8,15.3 165.8,9.3 167,8.5 166.8,8.3 165.7,9.1 163.6,6.9 
		160.6,9.2 158.5,6.9 155.7,9.1 153.5,7 	"/>
	<polygon fill="#251802" points="143.9,9.4 144,9.5 144.8,8.8 146,10.3 146,16.4 145.2,17.1 145.3,17.3 146.2,16.5 148.2,18.8 
		151.2,16.2 151.1,16.1 150.2,16.8 149,15.5 149,9.5 150,8.7 149.9,8.5 148.9,9.3 146.8,6.9 	"/>
	<polygon fill="#251802" points="144.7,4.3 146.9,2.4 148.7,4.3 146.5,6.3 	"/>
	<g>
		<g>
			<defs>
				<polygon id="SVGID_15_" points="0.5,0 185.5,0 185,25.1 0,25.1 				"/>
			</defs>
			<clipPath id="SVGID_16_">
				<use xlink:href="#SVGID_15_"  overflow="visible"/>
			</clipPath>
			<path clip-path="url(#SVGID_16_)" fill="#251802" d="M135,13.8V7.1l-2.2,1c0,0-0.5,1.2-0.4,2.8c0.1,1.3,0.8,2.9,1.4,3.5L135,13.8
				z M141.1,0c0.5,0,1.3,0.3,1.9,0.8c0.7,0.6,0.8,1.5,0.6,2.4c-0.2,0.8-0.4,1.1-1.2,1.7c-0.8,0.5-1.5,0.5-1.5,0.5v3.3l1.3,1.4
				l-1.3,1.1v4.4c0,0,1.3-0.9,2.3-2.9c0,0,0-0.1,0.1-0.3c0.1,0.6,0,1.7-0.6,3.1c-0.5,1.1-1.4,2.1-2.4,2.7c-1.9,1-3.4,1.1-5,0.8
				c-1.8-0.4-3.5-1.4-4.6-3.1c-0.8-1.2-1.2-2.6-1.1-4.2c0.1-3,2.4-5.6,5-6.6c0.3-0.1,0.5-0.2,0.9-0.2c-0.2,0.1-0.5,0.3-0.8,0.5
				c-0.9,0.6-1.6,1.6-1.9,2.5l5.1-2.3v7l-4.1,2.1c0.5,0.6,1.9,1.6,3.2,1.7c2.1,0.2,2.9-0.7,2.9-0.7v-4.5l-1.2-1.1l1.2-1.4V5.4
				c-0.9-0.1-1.6-0.4-2.2-0.5c-0.9-0.2-4-1.1-4.5-1.1c-0.5-0.1-1.1,0-1.4,0.3c-0.4,0.3-0.6,0.9-0.4,1.4c0.1,0.3,0.3,0.4,0.4,0.6
				c0,0-0.2,0-0.5-0.2c-0.6-0.3-1-1-1.1-1.8c-0.1-1.1,0.4-2,1.3-2.7c0.8-0.5,1.7-0.8,2.7-0.7c1.5,0.2,3.6,1,5.4,1.5
				c0.7,0.2,1.3,0.2,1.7-0.1c0.2-0.2,0.6-0.6,0.3-1.1c-0.4-0.6-1.1-0.6-1.8-0.7C140.6,0,140.7,0,141.1,0"/>
		</g>
		<g>
			<defs>
				<polygon id="SVGID_17_" points="0.5,0 185.5,0 185,25.1 0,25.1 				"/>
			</defs>
			<clipPath id="SVGID_18_">
				<use xlink:href="#SVGID_17_"  overflow="visible"/>
			</clipPath>
			<path clip-path="url(#SVGID_18_)" fill="#251802" d="M179.8,8.1v3.2l1.1,0.9c0,0,2.4-1.9,3.3-3.6c0,0-1.1,1.4-2.5,1
				C180.4,9.3,179.8,8.1,179.8,8.1 M177.1,16.6c0,0,1-1.7,2.8-1.3c1.7,0.3,2.3,2.1,2.3,2.1v-4.1l-1.2-1
				C179.8,13.6,177.4,15.4,177.1,16.6 M178.9,19.7c-0.3,0.1-1.8-0.2-2.1-1.7c-0.3-1.4,0.7-2.4,2.2-3.9l-1.8-1.6V9.4
				c0,0,1.3-0.6,2.4-1.3c1-0.6,2.1-1.3,2.1-1.3s0.8,1,1.7,0.9c1.4-0.1,1.3-1.2,1.3-1.4c0.2,0.4,0.9,1.6-1.6,4.3l2,1.5v4
				c0,0-2.3,1.2-4.5,2.7c0,0-1.2-1.5-2.3-0.8C177.5,18.5,177.9,19.3,178.9,19.7"/>
		</g>
		<g>
			<defs>
				<polygon id="SVGID_19_" points="0.5,0 185.5,0 185,25.1 0,25.1 				"/>
			</defs>
			<clipPath id="SVGID_20_">
				<use xlink:href="#SVGID_19_"  overflow="visible"/>
			</clipPath>
			<path clip-path="url(#SVGID_20_)" fill="#251802" d="M99,15.1l2.1,1.9v-6.6l-2.1-2V15.1z M104.4,9.5l0.9-0.8l0.1,0.1l-0.9,0.8V16
				c0,0-1.6,0.9-2.8,1.5c-1.2,0.6-2.4,1.4-2.4,1.4l-3.3-2.5l-1,0.9L95,17.2l1-1V9.4h0c0,0,1.7-0.6,2.9-1.3c1.1-0.6,2.3-1.3,2.3-1.3
				L104.4,9.5z"/>
		</g>
		<g>
			<defs>
				<polygon id="SVGID_21_" points="0.5,0 185.5,0 185,25.1 0,25.1 				"/>
			</defs>
			<clipPath id="SVGID_22_">
				<use xlink:href="#SVGID_21_"  overflow="visible"/>
			</clipPath>
			<path clip-path="url(#SVGID_22_)" fill="#251802" d="M110.8,8.9l1.6-1.9c0,0,0.3,0.2,0.5,0.3c0.1,0.1,0.7,0.4,1.3,0.1
				c0.3-0.2,0.3-0.2,0.7-0.5c0.1,1.5-0.7,2.5-1.6,3c-0.4,0.2-1.1,0.5-2.3-0.8v6.8l0.9,1l1-0.8l0.1,0.1l-3.2,2.6l-2.4-2.1l-0.9,0.8
				l-0.1-0.1l1.8-1.2l0-5.9l-1.5-1.3l-0.9,0.7l-0.1-0.1l3.1-2.7L110.8,8.9z"/>
		</g>
		<g>
			<defs>
				<polygon id="SVGID_23_" points="0.5,0 185.5,0 185,25.1 0,25.1 				"/>
			</defs>
			<clipPath id="SVGID_24_">
				<use xlink:href="#SVGID_23_"  overflow="visible"/>
			</clipPath>
			<path clip-path="url(#SVGID_24_)" fill="#251802" d="M119,11.7l3.1-5c0,0,0.5,0.5,1.3,0.7c1.1,0.3,2.1-0.8,2.1-0.8
				c-0.2,1.3-0.9,2.9-2.3,3.1c-1.3,0.2-2.5-0.8-2.5-0.8l-0.2,0.3l4.9,7.2l1-0.8l0.1,0.1l-2.9,2.9L119,11.7z"/>
		</g>
		<g>
			<defs>
				<polygon id="SVGID_25_" points="0.5,0 185.5,0 185,25.1 0,25.1 				"/>
			</defs>
			<clipPath id="SVGID_26_">
				<use xlink:href="#SVGID_25_"  overflow="visible"/>
			</clipPath>
			<path clip-path="url(#SVGID_26_)" fill="#251802" d="M116.1,5c0-1.1-0.5-1.7-1.1-1.7l3.9-2.6v14.9l1,1l0.8-0.7l0.1,0.1l-3.1,2.6
				l-2.1-1.9l-1.3,0.7l-0.1-0.1l2-1.2L116.1,5L116.1,5z"/>
		</g>
		<g>
			<defs>
				<polygon id="SVGID_27_" points="0.5,0 185.5,0 185,25.1 0,25.1 				"/>
			</defs>
			<clipPath id="SVGID_28_">
				<use xlink:href="#SVGID_27_"  overflow="visible"/>
			</clipPath>
			<path clip-path="url(#SVGID_28_)" fill="#251802" d="M91,9.2c0,0-0.4,0.5-1.1,0.5c-0.7,0-0.9-0.5-0.9-0.5v2c0,0,0.3-0.5,0.9-0.5
				c0.7,0,1.1,0.5,1.1,0.5V9.2z M91,4.8l-1.3-1.3L89,4.1v4.8c0,0,0.3,0.5,0.9,0.5c0.7,0,1.1-0.5,1.1-0.5V4.8z M88.4,18.4
				c0,0,1.3,0.2,1.9-0.3c0.7-0.6,0.7-1.4,0.7-1.4v-5.2c0,0-0.4-0.5-1.1-0.5c-0.7,0-0.9,0.5-0.9,0.5v6.9H88.4z M83.1,4.8
				c0-1-0.4-1.6-1.1-1.6c-1,0-1.2,1.3-1.2,1.3s-0.2-1,0.7-2C82,2,82.9,1.3,84.4,1.6C85.9,2,86,3.1,86,4.1V18c0,0,1.3,0.1,1.7,0.1
				c0.5,0.1,0.3,0.2,0.3,0.2V1.6h1v2.3l2.6-2.4l2.3,2l0.9-0.9l0.1,0.1l-0.9,0.9v12.9c-0.1,0.8-0.2,1.7-1,2.2
				c-1.4,0.8-2.8,0.1-6.4-0.4c-1.5-0.2-3.4-0.5-4,0.8c-0.2,0.4-0.2,1.1,0.5,1.5c1.3,0.9,7.3-1.4,9.3-0.5c1.9,0.8,1.7,2.2,1.4,3.1
				c-0.5,1.7-2.5,2-2.5,2s1.1-0.6,0.8-1.6c-0.2-0.5-0.5-0.7-1.7-0.5c-2.5,0.3-5.6,1.5-7.6,0.6c-1.1-0.4-2-1.7-1.9-2.9
				c0.1-1.8,2.4-2.5,2.4-2.5v-6.7c-0.1-0.3-1.2-0.2-1.5,0.3c-0.4,0.7,0.5,1.1,0.5,1.1s-0.7,0.1-1.3-0.6c-0.3-0.3-0.9-1.5-0.1-2.5
				c0.6-0.9,1.4-1,2.4-1.1L83.1,4.8L83.1,4.8z"/>
		</g>
	</g>
</g>
</svg>
